# xmcd
#
# Track frame offsets:
#	150
#	16860
#	34535
#	55925
#	72505
#	104802
#	122227
#	145862
#	160200
#	178345
#	198712
#	215775
#	241490
#	257395
#	282155
#	300335
#	325292
#
# Disc length: 4584
#
# Revision: 2
# Processed by: cddbd v1.5.1PL0 Copyright (c) Steve Scherf et al.
# Submitted via: FreeRIP 2.51 
# Normalized: r1:TDELIM( - )
#
DISCID=0311e611
DTITLE=Various Artist - Killing me softly
DYEAR=1900
DGENRE=Soul
TTITLE0=Teeko X - Killing me softly (feat. Rod D.)
TTITLE1=MN8 - The patway to the moon
TTITLE2=Mark Morrison - Tears for you (Feat. Mica Paris)
TTITLE3=Coolio - Too hot
TTITLE4=L. V. - Just a little something
TTITLE5=Cultured Pearls - Mother earth
TTITLE6=Kool and The Gang - Reunited
TTITLE7=All 4 One - Tapestry
TTITLE8=Brandy - I'm yours
TTITLE9=Sa Deuce - Does she
TTITLE10=B-Zet With Darlesia - Cought within (Gonna miss you)
TTITLE11=Raw Stylus - Change
TTITLE12=Vladimir - Hands on my body
TTITLE13=Randy Crawford - Holding back the years
TTITLE14=Jodeci - Freak'n on
TTITLE15=Michelle Gayle - I'll find you
TTITLE16=Gerald Levert - I'd give anything
EXTD=17 Soul Balladen
EXTT0=
EXTT1=
EXTT2=
EXTT3=
EXTT4=
EXTT5=
EXTT6=
EXTT7=
EXTT8=
EXTT9=
EXTT10=
EXTT11=
EXTT12=
EXTT13=
EXTT14=
EXTT15=
EXTT16=
PLAYORDER=
